<?xml version="1.0" encoding="UTF-8" standalone="no"?><svg xmlns="http://www.w3.org/2000/svg" xmlns:xlink="http://www.w3.org/1999/xlink" contentScriptType="application/ecmascript" contentStyleType="text/css" height="1330px" preserveAspectRatio="none" style="width:847px;height:1330px;background:#FFFFFF;" version="1.1" viewBox="0 0 847 1330" width="847px" zoomAndPan="magnify"><defs><filter height="300%" id="f1q2inqk5r45ur" width="300%" x="-1" y="-1"><feGaussianBlur result="blurOut" stdDeviation="2.0"/><feColorMatrix in="blurOut" result="blurOut2" type="matrix" values="0 0 0 0 0 0 0 0 0 0 0 0 0 0 0 0 0 0 .4 0"/><feOffset dx="4.0" dy="4.0" in="blurOut2" result="blurOut3"/><feBlend in="SourceGraphic" in2="blurOut3" mode="normal"/></filter></defs><g><!--MD5=[c8594aff5d756e16df7bc9dea78287b6]
cluster operadora--><rect fill="#FEFECE" filter="url(#f1q2inqk5r45ur)" height="429" rx="12.5" ry="12.5" style="stroke:#A80036;stroke-width:1.5;" width="176" x="12" y="81"/><rect fill="#FFFFFF" height="395.3906" rx="12.5" ry="12.5" style="stroke:#FFFFFF;stroke-width:1.0;" width="170" x="15" y="111.6094"/><line style="stroke:#A80036;stroke-width:1.5;" x1="12" x2="188" y1="108.6094" y2="108.6094"/><text fill="#000000" font-family="sans-serif" font-size="14" lengthAdjust="spacing" textLength="66" x="67" y="99.5332">operadora</text><!--MD5=[40eb0acf34d28772a75e3b6b2dbc611c]
cluster distribuidor--><rect fill="#FEFECE" filter="url(#f1q2inqk5r45ur)" height="575" rx="12.5" ry="12.5" style="stroke:#A80036;stroke-width:1.5;" width="195" x="316" y="311"/><rect fill="#FFFFFF" height="541.3906" rx="12.5" ry="12.5" style="stroke:#FFFFFF;stroke-width:1.0;" width="189" x="319" y="341.6094"/><line style="stroke:#A80036;stroke-width:1.5;" x1="316" x2="511" y1="338.6094" y2="338.6094"/><text fill="#000000" font-family="sans-serif" font-size="14" lengthAdjust="spacing" textLength="70" x="378.5" y="329.5332">distribuidor</text><!--MD5=[210acc5d716275ba562eab0506e3109d]
cluster encargado--><rect fill="#FEFECE" filter="url(#f1q2inqk5r45ur)" height="648" rx="12.5" ry="12.5" style="stroke:#A80036;stroke-width:1.5;" width="284" x="551" y="670"/><rect fill="#FFFFFF" height="614.3906" rx="12.5" ry="12.5" style="stroke:#FFFFFF;stroke-width:1.0;" width="278" x="554" y="700.6094"/><line style="stroke:#A80036;stroke-width:1.5;" x1="551" x2="835" y1="697.6094" y2="697.6094"/><text fill="#000000" font-family="sans-serif" font-size="14" lengthAdjust="spacing" textLength="68" x="659" y="688.5332">encargado</text><ellipse cx="105" cy="135" fill="#000000" filter="url(#f1q2inqk5r45ur)" rx="10" ry="10" style="stroke:none;stroke-width:1.0;"/><g id="operadora.generarListado"><rect fill="#FEFECE" filter="url(#f1q2inqk5r45ur)" height="50" rx="12.5" ry="12.5" style="stroke:#A80036;stroke-width:1.5;" width="116" x="47" y="206"/><line style="stroke:#A80036;stroke-width:1.5;" x1="47" x2="163" y1="233.6094" y2="233.6094"/><text fill="#000000" font-family="sans-serif" font-size="14" lengthAdjust="spacing" textLength="96" x="57" y="225.5332">generarListado</text></g><g id="operadora.generarFactura"><rect fill="#FEFECE" filter="url(#f1q2inqk5r45ur)" height="50" rx="12.5" ry="12.5" style="stroke:#A80036;stroke-width:1.5;" width="119" x="44.5" y="340"/><line style="stroke:#A80036;stroke-width:1.5;" x1="44.5" x2="163.5" y1="367.6094" y2="367.6094"/><text fill="#000000" font-family="sans-serif" font-size="14" lengthAdjust="spacing" textLength="99" x="54.5" y="359.5332">generarFactura</text></g><ellipse cx="54" cy="476" filter="url(#f1q2inqk5r45ur)" rx="10" ry="10" style="stroke:#000000;stroke-width:1.0;fill:none;"/><ellipse cx="54.5" cy="476.5" fill="#000000" rx="6" ry="6" style="stroke:none;stroke-width:1.0;"/><ellipse cx="420" cy="365" fill="#000000" filter="url(#f1q2inqk5r45ur)" rx="10" ry="10" style="stroke:none;stroke-width:1.0;"/><g id="distribuidor.entregarPedido"><rect fill="#FEFECE" filter="url(#f1q2inqk5r45ur)" height="50" rx="12.5" ry="12.5" style="stroke:#A80036;stroke-width:1.5;" width="118" x="361" y="451"/><line style="stroke:#A80036;stroke-width:1.5;" x1="361" x2="479" y1="478.6094" y2="478.6094"/><text fill="#000000" font-family="sans-serif" font-size="14" lengthAdjust="spacing" textLength="98" x="371" y="470.5332">entregarPedido</text></g><g id="distribuidor.cobrar"><rect fill="#FEFECE" filter="url(#f1q2inqk5r45ur)" height="50" rx="12.5" ry="12.5" style="stroke:#A80036;stroke-width:1.5;" width="61" x="364.5" y="565"/><line style="stroke:#A80036;stroke-width:1.5;" x1="364.5" x2="425.5" y1="592.6094" y2="592.6094"/><text fill="#000000" font-family="sans-serif" font-size="14" lengthAdjust="spacing" textLength="41" x="374.5" y="584.5332">cobrar</text></g><ellipse cx="368" cy="852" filter="url(#f1q2inqk5r45ur)" rx="10" ry="10" style="stroke:#000000;stroke-width:1.0;fill:none;"/><ellipse cx="368.5" cy="852.5" fill="#000000" rx="6" ry="6" style="stroke:none;stroke-width:1.0;"/><g id="distribuidor.firmarListado"><rect fill="#FEFECE" filter="url(#f1q2inqk5r45ur)" height="50" rx="12.5" ry="12.5" style="stroke:#A80036;stroke-width:1.5;" width="102" x="377" y="699"/><line style="stroke:#A80036;stroke-width:1.5;" x1="377" x2="479" y1="726.6094" y2="726.6094"/><text fill="#000000" font-family="sans-serif" font-size="14" lengthAdjust="spacing" textLength="82" x="387" y="718.5332">firmarListado</text></g><g id="encargado.registrarEntrega"><rect fill="#FEFECE" filter="url(#f1q2inqk5r45ur)" height="50" rx="12.5" ry="12.5" style="stroke:#A80036;stroke-width:1.5;" width="123" x="597.5" y="827"/><line style="stroke:#A80036;stroke-width:1.5;" x1="597.5" x2="720.5" y1="854.6094" y2="854.6094"/><text fill="#000000" font-family="sans-serif" font-size="14" lengthAdjust="spacing" textLength="103" x="607.5" y="846.5332">registrarEntrega</text></g><ellipse cx="683" cy="724" fill="#000000" filter="url(#f1q2inqk5r45ur)" rx="10" ry="10" style="stroke:none;stroke-width:1.0;"/><ellipse cx="639" cy="1284" filter="url(#f1q2inqk5r45ur)" rx="10" ry="10" style="stroke:#000000;stroke-width:1.0;fill:none;"/><ellipse cx="639.5" cy="1284.5" fill="#000000" rx="6" ry="6" style="stroke:none;stroke-width:1.0;"/><g id="encargado.registrarPago"><rect fill="#FEFECE" filter="url(#f1q2inqk5r45ur)" height="50" rx="12.5" ry="12.5" style="stroke:#A80036;stroke-width:1.5;" width="106" x="620" y="941"/><line style="stroke:#A80036;stroke-width:1.5;" x1="620" x2="726" y1="968.6094" y2="968.6094"/><text fill="#000000" font-family="sans-serif" font-size="14" lengthAdjust="spacing" textLength="86" x="630" y="960.5332">registrarPago</text></g><g id="encargado.registrarObservacion"><rect fill="#FEFECE" filter="url(#f1q2inqk5r45ur)" height="50" rx="12.5" ry="12.5" style="stroke:#A80036;stroke-width:1.5;" width="153" x="657.5" y="1052"/><line style="stroke:#A80036;stroke-width:1.5;" x1="657.5" x2="810.5" y1="1079.6094" y2="1079.6094"/><text fill="#000000" font-family="sans-serif" font-size="14" lengthAdjust="spacing" textLength="133" x="667.5" y="1071.5332">registrarObservacion</text></g><g id="encargado.dejarPendiente"><rect fill="#FEFECE" filter="url(#f1q2inqk5r45ur)" height="50" rx="12.5" ry="12.5" style="stroke:#A80036;stroke-width:1.5;" width="116" x="694" y="1163"/><line style="stroke:#A80036;stroke-width:1.5;" x1="694" x2="810" y1="1190.6094" y2="1190.6094"/><text fill="#000000" font-family="sans-serif" font-size="14" lengthAdjust="spacing" textLength="96" x="704" y="1182.5332">dejarPendiente</text></g><ellipse cx="20" cy="16" fill="#000000" filter="url(#f1q2inqk5r45ur)" rx="10" ry="10" style="stroke:none;stroke-width:1.0;"/><!--MD5=[f300a1cd86dd2a1ff9552ee1bd4fd907]
link *start to operadora--><path d="M20,26.18 C20,32.9675 20,42.9444 20,54.1297 C20,59.7223 20,65.6171 20,71.5664 C20,74.541 20,77.5292 20,80.5002 " fill="none" id="*start-to-operadora" style="stroke:#A80036;stroke-width:1.0;"/><polygon fill="#A80036" points="20,80.5002,24,71.5002,20,75.5002,16,71.5002,20,80.5002" style="stroke:#A80036;stroke-width:1.0;"/><!--MD5=[e22859e3c36db444c699e19ac8887b11]
link *start*operadora to generarListado--><path d="M105,145.01 C105,157.7 105,181.41 105,200.57 " fill="none" id="*start*operadora-to-generarListado" style="stroke:#A80036;stroke-width:1.0;"/><polygon fill="#A80036" points="105,205.84,109,196.84,105,200.84,101,196.84,105,205.84" style="stroke:#A80036;stroke-width:1.0;"/><!--MD5=[ce9ff972b425ce36843df75b962f6e6b]
link generarListado to distribuidor--><path d="M163.11,233.1 C260.5,236.24 450.38,248.34 495,295 C497.5838,297.7025 499.6591,300.7623 501.3112,304.0534 C502.1373,305.6989 502.8575,307.4022 503.4827,309.1475 C503.6389,309.5838 503.7893,310.0228 503.9338,310.4641 C503.97,310.5744 504.0057,310.6849 504.0412,310.7956 " fill="none" id="generarListado-to-distribuidor" style="stroke:#A80036;stroke-width:1.0;"/><polygon fill="#A80036" points="504.0412,310.7956,505.1064,301.0045,502.5166,306.0337,497.4874,303.4438,504.0412,310.7956" style="stroke:#A80036;stroke-width:1.0;"/><!--MD5=[9947cb8ba1f96919475d321cd612da6e]
link generarListado to generarFactura--><path d="M104.82,256.21 C104.65,278.35 104.4,311.16 104.22,334.75 " fill="none" id="generarListado-to-generarFactura" style="stroke:#A80036;stroke-width:1.0;"/><polygon fill="#A80036" points="104.18,339.94,108.257,330.9746,104.2229,334.9402,100.2573,330.906,104.18,339.94" style="stroke:#A80036;stroke-width:1.0;"/><!--MD5=[e1c30acb64d3a67acb32b8d9cfc5e323]
link generarFactura to *end*operadora--><path d="M92.9,390.19 C82.8,412.21 68.27,443.89 60.13,461.65 " fill="none" id="generarFactura-to-*end*operadora" style="stroke:#A80036;stroke-width:1.0;"/><polygon fill="#A80036" points="58.01,466.26,65.4004,459.7498,60.0962,461.716,58.13,456.4119,58.01,466.26" style="stroke:#A80036;stroke-width:1.0;"/><!--MD5=[7a75bd96d7f2ccf4ee11266b3b7b3dff]
link *start*distribuidor to entregarPedido--><path d="M420,375.29 C420,390.71 420,422.18 420,445.67 " fill="none" id="*start*distribuidor-to-entregarPedido" style="stroke:#A80036;stroke-width:1.0;"/><polygon fill="#A80036" points="420,450.85,424,441.85,420,445.85,416,441.85,420,450.85" style="stroke:#A80036;stroke-width:1.0;"/><!--MD5=[83a09d9e98f82ea725a43c1ad7061ee3]
link entregarPedido to cobrar--><path d="M414.64,501.03 C410.81,518.18 405.63,541.36 401.56,559.62 " fill="none" id="entregarPedido-to-cobrar" style="stroke:#A80036;stroke-width:1.0;"/><polygon fill="#A80036" points="400.44,564.63,406.2971,556.712,401.5247,559.7491,398.4876,554.9766,400.44,564.63" style="stroke:#A80036;stroke-width:1.0;"/><!--MD5=[42794740ad0ed35c5d65cad1a9bb0d2a]
link generarFactura to cobrar--><path d="M104.22,390.07 C105.9,425.04 114.29,489.69 152,526 C181.48,554.39 298.52,575.04 358.76,584.02 " fill="none" id="generarFactura-to-cobrar" style="stroke:#A80036;stroke-width:1.0;"/><polygon fill="#A80036" points="364.05,584.8,355.7295,579.5303,359.1034,584.0709,354.5629,587.4448,364.05,584.8" style="stroke:#A80036;stroke-width:1.0;"/><text fill="#000000" font-family="sans-serif" font-size="13" lengthAdjust="spacing" textLength="190" x="153" y="481.4951">entrega de la factura al repartidor</text><!--MD5=[12b2146a0a2c6538a1f3e75f4f54167d]
link cobrar to *end*distribuidor--><path d="M377.76,615.2 C370.78,626.43 363.55,640.31 360,654 C342.71,720.72 357.57,804.35 364.7,837.02 " fill="none" id="cobrar-to-*end*distribuidor" style="stroke:#A80036;stroke-width:1.0;"/><polygon fill="#A80036" points="365.85,842.17,367.8024,832.5166,364.7653,837.2891,359.9929,834.252,365.85,842.17" style="stroke:#A80036;stroke-width:1.0;"/><!--MD5=[b7ccd12c884f998f6e5bc202323fb30d]
link cobrar to firmarListado--><path d="M401.05,615.21 C406.61,637.45 414.86,670.43 420.76,694.05 " fill="none" id="cobrar-to-firmarListado" style="stroke:#A80036;stroke-width:1.0;"/><polygon fill="#A80036" points="421.99,698.94,423.681,689.2374,420.774,694.0901,415.9212,691.1831,421.99,698.94" style="stroke:#A80036;stroke-width:1.0;"/><!--MD5=[f96957968c5e8bd0f507cfaff5c62693]
link firmarListado to *end*distribuidor--><path d="M404.94,749.25 C397.64,758.05 390.13,768.44 385,779 C375.9,797.73 371.51,821.6 369.51,836.6 " fill="none" id="firmarListado-to-*end*distribuidor" style="stroke:#A80036;stroke-width:1.0;"/><polygon fill="#A80036" points="368.88,841.7,373.9564,833.2602,369.4949,836.738,366.0172,832.2764,368.88,841.7" style="stroke:#A80036;stroke-width:1.0;"/><!--MD5=[7b4740f3f7ac8ccbf478ab6b857b5179]
link distribuidor to encargado--><path d="M511.0369,417.2508 C511.3498,419.2456 511.6696,421.2846 511.9959,423.3652 C517.2175,456.6541 524.1088,500.5856 531,544.5163 C537.8913,588.4469 544.7825,632.3766 550.0041,665.6617 C550.3304,667.742 550.6502,669.7808 550.9631,671.7753 " fill="none" id="distribuidor-to-encargado" style="stroke:#A80036;stroke-width:1.0;"/><polygon fill="#A80036" points="550.9631,671.7753,553.52,662.2642,550.1882,666.8358,545.6167,663.504,550.9631,671.7753" style="stroke:#A80036;stroke-width:1.0;"/><!--MD5=[07fdcc584a6c639e9c3e277d095d442e]
link firmarListado to registrarEntrega--><path d="M413.39,749.02 C406.2,764.25 401.16,783.53 412,797 C423.37,811.12 522.92,829.5 592.11,840.77 " fill="none" id="firmarListado-to-registrarEntrega" style="stroke:#A80036;stroke-width:1.0;"/><polygon fill="#A80036" points="597.45,841.63,589.2072,836.2397,592.5146,840.8289,587.9254,844.1363,597.45,841.63" style="stroke:#A80036;stroke-width:1.0;"/><text fill="#000000" font-family="sans-serif" font-size="13" lengthAdjust="spacing" textLength="247" x="413" y="793.4951">entrega del dinero y facturas al final del dia</text><!--MD5=[62a7ec6a493dbfc50822742713ee6ec5]
link *start*encargado to registrarEntrega--><path d="M681.27,734.06 C677.83,752.12 669.99,793.3 664.59,821.64 " fill="none" id="*start*encargado-to-registrarEntrega" style="stroke:#A80036;stroke-width:1.0;"/><polygon fill="#A80036" points="663.62,826.77,669.2442,818.6849,664.5621,821.8596,661.3875,817.1775,663.62,826.77" style="stroke:#A80036;stroke-width:1.0;"/><!--MD5=[ce4dfc14df892abb1a78e6d7d3225bbc]
link registrarEntrega to *end*encargado--><path d="M630.65,877.07 C609.41,897.91 584,930.13 584,965 C584,965 584,965 584,1189 C584,1223.51 611.96,1256.6 628.01,1272.75 " fill="none" id="registrarEntrega-to-*end*encargado" style="stroke:#A80036;stroke-width:1.0;"/><polygon fill="#A80036" points="631.81,1276.48,628.1818,1267.3238,628.2389,1272.9804,622.5824,1273.0375,631.81,1276.48" style="stroke:#A80036;stroke-width:1.0;"/><!--MD5=[e4cec9ea99192dfdc864f9f602b504f4]
link registrarEntrega to registrarPago--><path d="M662,877.03 C664.15,894.18 667.04,917.36 669.33,935.62 " fill="none" id="registrarEntrega-to-registrarPago" style="stroke:#A80036;stroke-width:1.0;"/><polygon fill="#A80036" points="669.95,940.63,672.8128,931.2064,669.3351,935.668,664.8736,932.1902,669.95,940.63" style="stroke:#A80036;stroke-width:1.0;"/><!--MD5=[e10d21cd24f893eec3a5a6d42dcd25ee]
link registrarPago to *end*encargado--><path d="M660.86,991.21 C653.21,1007.85 644.04,1030.69 640,1052 C624.76,1132.41 633.18,1231.42 637.23,1268.27 " fill="none" id="registrarPago-to-*end*encargado" style="stroke:#A80036;stroke-width:1.0;"/><polygon fill="#A80036" points="637.83,1273.64,640.8028,1264.2505,637.2731,1268.6711,632.8525,1265.1415,637.83,1273.64" style="stroke:#A80036;stroke-width:1.0;"/><!--MD5=[14adccb98e557bddbc0334e5c33c7ff8]
link registrarPago to registrarObservacion--><path d="M686.54,991.19 C695.78,1007.7 708.06,1029.65 717.82,1047.09 " fill="none" id="registrarPago-to-registrarObservacion" style="stroke:#A80036;stroke-width:1.0;"/><polygon fill="#A80036" points="720.5,1051.88,719.6014,1042.0722,718.0609,1047.5153,712.6178,1045.9748,720.5,1051.88" style="stroke:#A80036;stroke-width:1.0;"/><!--MD5=[7f55190a617f150bbf036ce3f6d3bbef]
link registrarObservacion to *end*encargado--><path d="M715.08,1102.17 C702.91,1118.6 687.48,1141.23 677,1163 C659.45,1199.46 647.41,1245.95 642.09,1268.89 " fill="none" id="registrarObservacion-to-*end*encargado" style="stroke:#A80036;stroke-width:1.0;"/><polygon fill="#A80036" points="640.94,1273.94,646.8461,1266.0585,642.0549,1269.0659,639.0475,1264.2747,640.94,1273.94" style="stroke:#A80036;stroke-width:1.0;"/><!--MD5=[e01c3559da7b1c911383e4d10617c640]
link registrarObservacion to dejarPendiente--><path d="M737.99,1102.19 C740.7,1118.56 744.28,1140.28 747.15,1157.64 " fill="none" id="registrarObservacion-to-dejarPendiente" style="stroke:#A80036;stroke-width:1.0;"/><polygon fill="#A80036" points="748.02,1162.88,750.4994,1153.3483,747.205,1157.9469,742.6064,1154.6524,748.02,1162.88" style="stroke:#A80036;stroke-width:1.0;"/><!--MD5=[afca2519fe8fafd366135d25c0d5f2b2]
link dejarPendiente to *end*encargado--><path d="M722.9,1213.21 C699.27,1232.87 667.2,1259.54 650.38,1273.54 " fill="none" id="dejarPendiente-to-*end*encargado" style="stroke:#A80036;stroke-width:1.0;"/><polygon fill="#A80036" points="646.44,1276.81,655.9216,1274.1455,650.2893,1273.6189,650.8159,1267.9867,646.44,1276.81" style="stroke:#A80036;stroke-width:1.0;"/><!--MD5=[3144f9bbc6af662869ac94d101c6ca72]
@startuml 
[*]- ->operadora

state operadora {
	[*]- ->generarListado
	generarListado- ->distribuidor
	generarListado- ->generarFactura
    
	generarFactura- ->[*]
}

state distribuidor {
	[*]- ->entregarPedido
	entregarPedido- ->cobrar
    generarFactura- ->cobrar : entrega de la factura al repartidor
	cobrar- ->[*]
	cobrar- ->firmarListado
	firmarListado- ->[*]
}

distribuidor- ->encargado

state encargado {
    firmarListado- ->registrarEntrega :entrega del dinero y facturas al final del dia
	[*]- ->registrarEntrega
	registrarEntrega- ->[*]
	registrarEntrega- ->registrarPago
	registrarPago- ->[*]
	registrarPago- ->registrarObservacion
	registrarObservacion- ->[*]
	registrarObservacion- ->dejarPendiente
	dejarPendiente- ->[*]
}

@enduml

PlantUML version 1.2022.0(Tue Jan 11 13:16:42 ART 2022)
(GPL source distribution)
Java Runtime: Java(TM) SE Runtime Environment
JVM: Java HotSpot(TM) 64-Bit Server VM
Default Encoding: Cp1252
Language: es
Country: AR
--></g></svg>